Coordinates
version=1
nRows=17
nColumns=36
inDegrees=yes

Units are S.I. units (second, meters, Newtons, ...)
If the header above contains a line with 'inDegrees', this indicates whether rotational values are in degrees (yes) or radians (no).

endheader
time	pelvis_tilt	pelvis_list	pelvis_rotation	pelvis_tx	pelvis_ty	pelvis_tz	hip_flexion_r	hip_adduction_r	hip_rotation_r	knee_angle_r	knee_angle_r_beta	ankle_angle_r	subtalar_angle_r	mtp_angle_r	hip_flexion_l	hip_adduction_l	hip_rotation_l	knee_angle_l	knee_angle_l_beta	ankle_angle_l	subtalar_angle_l	mtp_angle_l	lumbar_extension	lumbar_bending	lumbar_rotation	arm_flex_r	arm_add_r	arm_rot_r	elbow_flex_r	pro_sup_r	arm_flex_l	arm_add_l	arm_rot_l	elbow_flex_l	pro_sup_l
      1.01000000	     -2.65214902	     -1.06111001	      3.72657210	      1.13372328	      0.94843718	     -0.20008831	     27.88526521	      1.28177164	    -13.03931795	     10.31911375	      0.18010251	     -1.38215728	    -14.10445435	     -7.36678503	     -8.88211359	      3.36636106	     -7.82954849	      2.65702869	      0.04637390	     17.86369687	      3.73116388	     -7.36678503	     -1.61662239	     -2.74612095	    -12.68666436	     -5.65855426	     -0.05412616	    -12.44666830	     22.41932931	     99.48341497	     20.86238563	    -11.79159367	    -18.33422069	     46.96781815	    104.05661332
      1.02000000	     -2.59955581	     -0.86992967	      3.57655586	      1.14514458	      0.94615078	     -0.19940667	     27.28658122	      1.57662161	    -13.28201599	      6.84469852	      0.11946253	     -1.74417108	    -13.92267055	     -7.36916195	     -9.82750757	      3.49062130	     -7.93460259	      2.54142336	      0.04435621	     18.47539568	      3.89016943	     -7.36916195	     -1.70336489	     -2.97176193	    -12.91466726	     -5.88332707	      0.03418562	    -12.88201835	     21.92658867	     99.35390778	     21.59046086	    -12.30926427	    -17.53194512	     48.32791621	    104.25525700
      1.03000000	     -2.80950369	     -0.62106249	      3.41244262	      1.15649536	      0.94346311	     -0.19867636	     27.17433558	      1.71494897	    -13.56945707	      4.25295807	      0.07422812	     -1.69067890	    -13.56826043	     -7.37113899	    -10.35528748	      3.67872996	     -7.96802873	      2.67364560	      0.04666392	     18.85085827	      4.00634172	     -7.37113899	     -1.47716343	     -3.29101642	    -12.92872164	     -6.24516897	      0.10503246	    -13.24886512	     21.46865583	     99.24824987	     22.41458079	    -12.56586625	    -16.93248966	     49.52896291	    104.41624521
      1.04000000	     -3.06261183	     -0.37678658	      3.23230095	      1.16782457	      0.94078096	     -0.19797715	     27.29523838	      1.77333949	    -13.87542100	      2.56180821	      0.04471199	     -1.45074403	    -13.10386101	     -7.37223044	    -10.76131836	      3.86596173	     -7.96000696	      2.94361808	      0.05137583	     19.10017790	      3.98899311	     -7.37223044	     -1.21636257	     -3.59598645	    -12.85775588	     -6.57939802	      0.15074931	    -13.49708182	     21.02374901	     99.17721536	     23.23331221	    -12.68477010	    -16.46654521	     50.63683129	    104.55669110
      1.05000000	     -3.16847943	     -0.22991953	      3.09882375	      1.17931811	      0.93846747	     -0.19733237	     27.41313372	      1.80204447	    -14.61928650	      1.80148678	      0.03144188	     -0.40525095	    -11.11063353	     -7.37832539	    -11.26139664	      3.91301023	     -8.09666726	      3.31690572	      0.05789093	     19.51214483	      4.12774536	     -7.37832539	     -1.14443411	     -3.73335516	    -12.95746917	     -6.76330683	      0.21829772	    -14.29037371	     20.60124424	     98.98726229	     23.80072175	    -13.01985261	    -15.66971793	     51.87887952	    104.68972145
      1.06000000	     -3.37230472	     -0.13519613	      2.94908985	      1.19085385	      0.93616942	     -0.19665800	     27.63794143	      1.88106206	    -14.45747262	      1.54124560	      0.02689981	     -0.29170579	    -10.62786622	     -7.37919696	    -11.57726648	      3.91045003	     -8.08419606	      3.84067503	      0.06703242	     19.62715699	      3.93676919	     -7.37919696	     -0.95909288	     -3.81185005	    -12.84205064	     -7.02689554	      0.16961953	    -14.43930743	     20.18996192	     98.94644636	     24.50240095	    -12.95324290	    -15.35399229	     52.85082901	    104.79711678
      1.07000000	     -3.55969653	     -0.14278928	      2.83259314	      1.20259866	      0.93413306	     -0.19590794	     27.84503107	      2.01740395	    -14.07834998	      1.78029955	      0.03107209	     -0.12310825	     -9.77991451	     -7.38069218	    -11.81771030	      3.76698734	     -8.21902721	      4.53866515	      0.07921465	     19.77654096	      3.57711521	     -7.38069218	     -0.79428957	     -3.77733622	    -12.87918537	     -7.13231133	      0.11677280	    -14.68574344	     19.64729211	     98.88483617	     24.89451727	    -13.05315221	    -14.84037310	     54.02357542	    104.92840997
      1.08000000	     -3.65754685	     -0.35320093	      2.81721999	      1.21465521	      0.93253800	     -0.19529946	     27.92377909	      2.30103999	    -13.50657148	      2.41219103	      0.04210068	     -0.29824488	     -9.38171634	     -7.38119454	    -12.18697780	      3.37961975	     -8.06626476	      5.16698419	      0.09018089	     19.62925136	      3.51347037	     -7.38119454	     -0.66182014	     -3.45260676	    -12.99418631	     -7.27959897	     -0.02328120	    -14.79516353	     19.35095417	     98.85396464	     25.30319838	    -12.96847157	    -14.60926736	     54.70138955	    105.00057700
      1.09000000	     -3.73555953	     -0.62763272	      2.81622738	      1.22692416	      0.93122556	     -0.19457271	     27.98123887	      2.64365326	    -12.78868876	      3.32821523	      0.05808831	     -0.65735044	     -8.97010080	     -7.38173554	    -12.47088852	      2.89274113	     -8.07034644	      6.01000060	      0.10489430	     19.45078233	      3.30617547	     -7.38173554	     -0.57101634	     -3.07055316	    -13.03123468	     -7.39161459	     -0.16193262	    -14.93628042	     18.96652625	     98.81222107	     25.56883800	    -12.83595227	    -14.28609915	     55.57874684	    105.09747496
      1.10000000	     -4.00140501	     -0.91335758	      2.80594871	      1.23943343	      0.92994254	     -0.19366234	     28.27664464	      2.99168814	    -12.09178763	      4.48107374	      0.07820949	     -1.31595403	     -8.77799140	     -7.38444117	    -12.32992329	      2.33881304	     -8.59893020	      7.28736337	      0.12718848	     19.19277681	      2.84967232	     -7.38444117	     -0.23953249	     -2.75309734	    -13.28743855	     -7.30786919	     -0.26932329	    -15.24306113	     18.31714203	     98.70406839	     25.21254001	    -12.89981606	    -13.96655470	     57.19161995	    105.20615810
      1.11000000	     -3.98719513	     -1.36878344	      2.84716308	      1.25222601	      0.92935980	     -0.19279412	     28.17614929	      3.51637666	    -11.52172995	      5.56359797	      0.09710310	     -2.14493366	     -8.87958992	     -7.38570722	    -12.53823960	      1.58198276	     -8.86726703	      8.47154233	      0.14785631	     18.74805044	      2.53715469	     -7.38570722	     -0.24668582	     -2.19411113	    -13.30489295	     -7.35711386	     -0.47338632	    -15.36566865	     17.97732867	     98.64485539	     25.20795511	    -12.65652885	    -13.72508103	     58.19116650	    105.29256333
      1.12000000	     -3.96636419	     -1.92693170	      2.91726770	      1.26538434	      0.92914523	     -0.19184091	     27.97918061	      4.16357861	    -10.92662163	      6.55074085	      0.11433200	     -3.29530888	     -9.57136062	     -7.38752910	    -12.66678524	      0.67993531	     -9.15219143	      9.81988963	      0.17138941	     18.11420804	      2.25462337	     -7.38752910	     -0.16503714	     -1.48864094	    -13.52666090	     -7.32317853	     -0.62874356	    -15.49612492	     17.66756602	     98.56062661	     24.81012319	    -12.47985243	    -13.53168673	     59.22570872	    105.38009615
      1.13000000	     -3.81372670	     -2.50922007	      3.02412742	      1.27875319	      0.92939549	     -0.19089635	     27.57969011	      4.82030963	    -10.56899452	      7.46826331	      0.13034578	     -4.24354611	    -10.42105542	     -7.38886784	    -12.84195955	     -0.27849738	     -9.33429274	     11.34356374	      0.19798254	     17.34079317	      1.91833025	     -7.38886784	     -0.25427894	     -0.75428991	    -13.59963170	     -7.32393990	     -0.83125012	    -15.58990126	     17.42096560	     98.48935381	     24.47493340	    -12.18811213	    -13.30170397	     60.16079297	    105.48276712
      1.14000000	     -3.72811880	     -3.08950230	      3.10952037	      1.29227946	      0.92984084	     -0.18975897	     27.11741220	      5.58070821	     -9.59452407	      8.10562421	      0.14146983	     -6.38039795	    -13.21171639	     -7.39358762	    -12.86630149	     -1.23265629	     -9.29083410	     12.96538337	      0.22628863	     16.34704991	      1.38509394	     -7.39358762	     -0.21128194	     -0.04356074	    -13.93042885	     -7.15189253	     -0.99357630	    -15.64662883	     17.18004994	     98.29799401	     23.63703879	    -12.00484911	    -13.45505700	     61.43636889	    105.63100252
      1.15000000	     -3.38360479	     -3.66130318	      3.27501564	      1.30602869	      0.93082164	     -0.18874964	     26.45634716	      6.20990735	     -9.69079896	      9.04908035	      0.15793625	     -6.66862937	    -14.00438452	     -7.39477032	    -12.97700651	     -2.26061582	     -9.37463047	     14.94002846	      0.26075269	     15.23531497	      0.88669322	     -7.39477032	     -0.48385174	      0.65832891	    -13.86870882	     -7.17504966	     -1.16130865	    -15.65830745	     17.05004305	     98.24656743	     23.26552463	    -11.65617236	    -13.01507140	     62.05720187	    105.75720195
      1.16000000	     -3.07752301	     -4.17721481	      3.44709449	      1.31977511	      0.93194437	     -0.18764094	     25.81326046	      6.80412793	     -9.76131487	      9.96412513	      0.17390679	     -7.04108449	    -15.16315739	     -7.39618651	    -12.84869453	     -3.26207803	     -9.28541929	     17.20118409	      0.30021730	     13.80229915	      0.16273406	     -7.39618651	     -0.69357053	      1.30169291	    -13.87468454	     -7.12556896	     -1.28309630	    -15.68993183	     16.96478760	     98.18830616	     22.61594616	    -11.40243462	    -12.56891200	     62.78783580	    105.92730313
      1.17000000	     -2.88926394	     -4.53906294	      3.60593533	      1.33342825	      0.93310238	     -0.18646919	     25.23417832	      7.31989325	     -9.36212956	     10.78684099	      0.18826589	     -7.99734296	    -17.47709981	     -7.40117337	    -12.42153884	     -4.02021299	     -8.59140160	     19.66207036	      0.34316787	     11.64171915	     -1.63513221	     -7.40117337	     -0.76841616	      1.73833990	    -13.96723877	     -6.99038172	     -1.36742760	    -15.69380540	     16.86515870	     98.04407980	     21.74576213	    -11.16759686	    -12.34863562	     63.64437824	    106.31933559
